<?xml version="1.0" encoding="UTF-8"?>
<svg version="1.1" viewBox="0 0 1400 1020" width="1280" height="1280" xmlns="http://www.w3.org/2000/svg">
<path transform="translate(661,16)" d="m0 0 12 1 70 10 5 2 4 9 18 43 25 60 18 43 30 72 13 31 7 14 24 34 10 14 14 20 10 14 14 20 12 17 14 20 48 68 16 23 11 15 2 6-12 16-14 19-13 17-12 16-20-1-216-23-60-6h-13l-280 30h-9l-18-46-12-31-1-3 3-5 14-18 11-14 10-13 13-16 15-20 10-12 12-16 13-16 9-12 9-11 12-16 11-13 11-15 7-10 8-17 12-28 7-15 15-33 16-36 19-42 15-33 12-27 18-40 20-45zm42 204-9 14-21 35-19 32-10 16-16 27-87 145-4 6v2h23l217-7 63-2 17-1-2-5-14-25-30-52-28-49-30-52-13-23-12-21-15-26-8-14z" fill="#6D2879"/>
<path transform="translate(661,16)" d="m0 0 12 1 70 10 5 2 4 9 18 43 25 60 18 43 30 72 13 31 7 14 24 34 10 14 14 20 10 14 14 20 12 17 14 20 48 68 16 23 11 15 1 4-18-1-58-6-47-5-162-17-111-12-55-6-39-5v-1l13-1 217-7 63-2h17l-12-21-13-23-14-24-13-23-14-24-14-25-10-17-15-26-13-23-12-21-15-26-7-12v-2h-2l-3-8-16-27-13-22-6-11-4 1-10 12-8 11-14 17-10 13-9 12-2 3h-2l-2 5-11 13-8 11-11 14-12 15-7 9-9 12-13 16-8 10-4 3 3-9 13-29 16-36 12-26 16-36 18-40 15-33 16-36 18-40 12-27z" fill="#6D287A"/>
<path transform="translate(538,497)" d="m0 0h9l55 7 104 11 332 35-2 5-10 13-14 19-13 17-12 16-20-1-216-23-60-6-18-2-24-3-82-8-63-7-9-2 1-5 8-13 6-10 14-24 11-17z" fill="#6D287A"/>
<path transform="translate(660,17)" d="m0 0 4 4 10 24 6 15 6 13 6 15 5 11 8 20 7 17 5 11 5 13 5 12 10 23 7 17 16 39 10 24 8 19 10 24 17 41 15 36 11 27 11 26 8 21-1 4-13-23-15-26-12-21-15-26-12-21-30-52-13-23-12-21-15-26-7-12v-2h-2l-3-8-16-27-13-22-6-11-4 1-10 12-8 11-14 17-10 13-9 12-2 3h-2l-2 5-11 13-8 11-11 14-12 15-7 9-9 12-13 16-8 10-4 3 3-9 13-29 16-36 12-26 16-36 18-40 15-33 16-36 18-40z" fill="#AEB0AF"/>
<path transform="translate(864,304)" d="m0 0 4 4 14 20 13 18 11 16 13 18 11 16 48 68 14 20 13 18 13 19 10 14 9 13v2l-18-1-58-6-47-5-162-17-111-12-55-6-39-5v-1l13-1 217-7 63-2 18-1h48l31-1-6-16-13-31-19-45-17-41-8-19-9-22z" fill="#AEB0AF"/>
<path transform="translate(696,229)" d="m0 0v3l-13 22-9 15-19 32-10 16-16 27-87 145-4 6v3l-5 5-6 10-14 24-8 13-9 15-1 3 25 3 86 9 53 5 19 3v2l-280 30h-7l2-5 13-16 13-17 11-14 13-16 12-16 12-15 13-17 8-10 10-13 11-14 13-16 9-12 10-13 13-16 14-19 13-16 7-9 9-12 13-16 12-16 11-14 12-15 10-13 12-15 10-13 13-16z" fill="#AEB0AF"/>
<path transform="translate(710,806)" d="m0 0h23l24 1 18 4 14 8 7 7 5 10 2 13v33l-2 12-6 10-9 8-12 6-3 1 2 6 13 28 15 33 3 7v5l-11 1h-14l-6-9-17-37-11-25-2-4-5-1h-34l-1 75-17 1-10-1-1-17v-172l1-2zm-7 24v69h45l10-2 8-4 7-8 2-6v-30l-4-8-8-7-9-3-6-1z" fill="#595858"/>
<path transform="translate(503,807)" d="m0 0h27l1 148 2 9 4 5 10 5 9 2h22l11-3 8-5 4-5 1-3 1-47v-85l1-21h27l1 6-1 153-4 11-7 9-8 6-13 5-12 3-9 1h-25l-17-3-13-5-11-8-6-9-3-8-1-7v-59z" fill="#585757"/>
<path transform="translate(347,807)" d="m0 0h28v87l7-3 10-13 13-18 12-16 12-17 12-16 4-4h28l-2 5-10 14-13 18-12 16-13 18-11 15-6 7 2 4 11 13 11 14 13 16 10 13 13 16 12 16 2 6-6 1h-23l-5-4-11-14-9-11-22-28-9-11-11-14-6-4h-2l-1 84-1 1-11 1h-12l-3-1-1-2z" fill="#585757"/>
<path transform="translate(237,804)" d="m0 0h23l15 2 12 4 9 5 7 6 5 8 3 11v26l-1 1h-25l-1-1-1-19-4-9-6-5-8-3-15-2-14 1-11 4-6 5-3 5-1 4v111l3 8 7 6 8 3 4 1h24l10-3 6-4 4-5 2-5 1-24 5-1h16l6 1v30l-4 13-7 9-9 6-13 5-17 3h-27l-16-3-13-5-9-7-6-9-4-11v-127l4-12 7-9 11-7 10-4 9-2z" fill="#585757"/>
<path transform="translate(1293,806)" d="m0 0h22l4 4 8 24 24 80 19 63 5 17v4l-12 1h-13l-4-4-10-32-3-10v-3h-59l-14 44-2 4-7 1-18-1 1-8 16-54 14-46 19-63 6-19zm9 34-5 27-7 25-10 32v3h46l-3-12-12-40-6-28-1-7z" fill="#595858"/>
<path transform="translate(81,806)" d="m0 0h22l5 3 9 29 41 136 6 20v4l-11 1h-14l-3-2-9-27-6-20h-58l-3 8-11 37-4 4h-16l-7-1 1-8 16-54 13-43 17-56 8-26 2-4zm10 34-5 27-12 41-5 15v4l46 1-2-9-9-30-5-17-4-21-2-11z" fill="#595858"/>
<path transform="translate(874,806)" d="m0 0h55l22 1v22l-3 1h-77v57h74l1 1v21l-7 1h-68v65h81l2 1v21l-1 1-65 1h-42l-2-1v-191z" fill="#585757"/>
<path transform="translate(999,806)" d="m0 0h82l19 1v22l-2 1h-48v168h-27l-1-1v-167h-49l-2-5v-17l1-1z" fill="#585757"/>
<path transform="translate(1146,806)" d="m0 0h72l20 1v22l-2 1h-48v167l-1 1h-27l-1-149 1-19h-50l-1-2v-20l1-1z" fill="#5A5959"/>
<path transform="translate(897,388)" d="m0 0 2 2 15 36 11 26 12 29v4l-6 1-25 1h-48l-7-10-5-16-10-25-5-13 6-1 5-3h7l2-4 4-5 14-7 13-4 4-3h2v-2h2v2h3l1-4z" fill="#363C4C"/>
<path transform="translate(538,497)" d="m0 0h9l55 7 1 3h-2l2 8 1 11-4 1 1 8-1 5v14l-6 11-3 6h-2v3l-9 2 69 7v1h-11l-80-8-54-6-9-2 1-5 8-13 6-10 14-24 11-17z" fill="#353B4C"/>
<path transform="translate(662,151)" d="m0 0 4 1 11 20 8 13 14 23 4 8-1 7-4 6-6 5-11 14-12 15-2 2-4 2-10 2h-3l-12-12v-4h-5l-6-5-5-10-4-2-1 2-3-7v-5l1-5h-5l1-3h2v-5l12-16 14-17 20-26z" fill="#363B4C"/>
<path transform="translate(538,497)" d="m0 0h9l55 7 1 3h-2l2 8 1 11-4 1 1 8-1 5v14l-6 11-3 6h-2v3l-9 2 69 7v1h-11l-80-8-54-6-9-2 1-3v2l21 2 8 1h37l7-1 2-4 5-5 3-4-1-5-1-1v-6l1-2 1-10-3-5-1-5v-8l1-3-2-4h-3l-1-2-22-2-9-3z" fill="#3F3D58"/>
<path transform="translate(643,175)" d="m0 0v3l-8 11-6 7-3 7 1 5 5 5 1 4 4 2 8 11 9 7 10 9v8h10v-2l5-5 3-5 5-5 9-10 4-2-2 4-6 5-11 14-12 15-2 2-4 2-10 2h-3l-12-12v-4h-5l-6-5-5-10-4-2-1 2-3-7v-5l1-5h-5l1-3h2v-5l12-16 14-17z" fill="#3F3E58"/>
<path transform="translate(897,388)" d="m0 0 2 2 8 19v3h-2l-1-2-3-1-5 5-7 6-10 2-9 4-5 5-5 4-9 12-4 2h-3l1 6-3-4-8-20-3-8 6-1 5-3h7l2-4 4-5 14-7 13-4 4-3h2v-2h2v2h3l1-4z" fill="#3F3E58"/>
<path transform="translate(495,565)" d="m0 0 1 2 21 2 27 3 12 1 13 2 80 8v1h-11l-80-8-54-6-9-2z" fill="#575656"/>
<path transform="translate(538,497)" d="m0 0h9l39 5-4 2-11-1-1 1-22-1-9-3z" fill="#423C5A"/>
<path transform="translate(538,497)" d="m0 0h9l39 5-4 2-11-1-9-1-6-1-4-1-14-2z" fill="#575457"/>
<path transform="translate(643,175)" d="m0 0v3l-8 11-6 7-7 9-2-1 10-13z" fill="#575656"/>
<path transform="translate(698,225)" d="m0 0 2 1-5 5-11 13-9 12-1-4 5-5 3-5 5-5 9-10z" fill="#59525C"/>
<path transform="translate(662,151)" d="m0 0 4 1 2 3-1 3-3-4h-2l-11 14-3 2 2-5 11-13z" fill="#575656"/>
<path transform="translate(845,455)" d="m0 0 4 4 2 9 4 10-2 2-3-5-3-12-2-5z" fill="#636262"/>
<path transform="translate(845,455)" d="m0 0 4 4 2 8-2 1-4-10z" fill="#524C59"/>
</svg>
