<?xml version="1.0" encoding="UTF-8"?>
<svg version="1.1" viewBox="0 0 800 800" width="1280" height="1280" xmlns="http://www.w3.org/2000/svg">
<path transform="translate(0)" d="m0 0h800v800h-800z" fill="#a2d2ff"/>
<path transform="translate(300,172)" d="m0 0h24l22 2 25 5 19 6 20 8 20 10 4 3 7-1 18-8 25-9 24-7 23-5 19-3 10-1h36l22 3 21 6 16 7 10 6 13 10 8 8 9 12 8 15 5 15 3 14 1 9v14l-2 19-5 24-10 30-14 29-8 14-11 17-12 17-9 11-11 13-22 24-17 16-11 10-11 9-15 12-18 13-10 7-14 9-20 12-16 8-28 13-23 9-39 12-32 7-22 3h-35l-21-3-24-6-24-8-11-5-16-8-12-8-14-10-14-12-18-18-11-14-10-14-12-22-8-17-7-21-6-28-2-15v-36l3-24 5-21 8-24 12-25 11-18 12-16 12-14 8-8 11-9 10-8 18-12 22-12 20-8 20-6 24-5z" fill="#5CC6DE"/>
<path transform="translate(433,208)" d="m0 0h6l16 12 11 9 10 9 7 8 12 13 11 15 12 20 10 21 8 24 4 18 3 21 1 18v16l-3 24-4 18-6 21-9 21-11 21-3 7-3 1-1 5-4 5-5 5-5 8-6 5-7 9-6 5-5 6-11 9-10 7-5 2-9 7h-4v2l-10 3v2l-13 5-16 7-2 2-32 7-22 3h-35l-21-3-24-6v-2l-11-3-3-2v-2l-4-2-10-7-10-9-8-8-10-16-5-11-4-13-3-17v-28l4-24 5-19 6-18 4-8 3 1 8 20 6 11 5 7v2h2l7 8 9 9 13 9 17 8 15 5 18 3h19l17-3 18-6 17-9 12-9 10-9 10-13 9-16 6-16 3-13 1-8v-23l-3-17-5-15-8-16-9-13-9-10-14-11-14-8-14-6-15-4-8-3 2-6 2-3 2-6 5-5h2v-2l18-13 26-17 19-11 21-11 6-3z" fill="#3B8896"/>
<path transform="translate(560,172)" d="m0 0h36l22 3 21 6 16 7 10 6 13 10 8 8 9 12 8 15 5 15 3 14 1 9v14l-2 19-5 24-10 30-14 29-8 14-11 17-12 17-9 11-11 13-22 24-17 16-11 10-11 9-15 12-18 13-10 7-14 9-20 12-16 8-28 13-23 9-36 11-2-1 15-7 11-5h4v-2l8-3h2v-2l7-3 7-6 7-3 12-9 9-8 5-5 8-9 4-5 5-4 3-6 4-5 5-5 2-5 4-4 4-10 10-19 8-20 8-30 3-19 1-11v-16l-2-27-4-23-8-26-11-24-9-16-12-17-13-15-8-8-4-5-8-7-15-12-10-7-5-1v-1l9-3 21-9 36-12 25-6 25-4z" fill="#95A9C8"/>
<path transform="translate(299,287)" d="m0 0h31l15 3 15 5 17 9 12 9 11 10 10 13 8 14 6 15 4 17 1 7v23l-3 17-6 18-8 15-9 12-9 10-14 11-16 9-15 6-17 4-7 1h-19l-18-3-20-7-17-9-11-9-13-13v-2h-2l-7-11-8-16-5-13-3-12-1-7v-25l3-17 7-19 7-13 8-11 11-12 11-9 13-8 13-6 19-5z" fill="#F7F8F8"/>
<path transform="translate(433,208)" d="m0 0h6l16 12 11 9 10 9 7 8 12 13 11 15 12 20 10 21 8 24 4 18 3 21 1 18v16l-3 24-3 1-2-4-3-1-4 2h-3l-15 3-8 4-7 2-3 2-4-2-8 5-4 3-7-1-9 5-15 6-6 1h-16l-6 4-11 11h-2v2h-2v2h-2v2h-2v2l-5 3-3 1-1 2v-3l9-10 10-13 9-16 6-16 3-13 1-8v-23l-3-17-5-15-8-16-9-13-9-10-14-11-14-8-14-6-15-4-8-3 2-6 2-3 2-6 5-5h2v-2l18-13 26-17 19-11 21-11 6-3z" fill="#306F9C"/>
<path transform="translate(586,411)" d="m0 0 5 2 4 4 7 3 2 4 8 1v2h2v2l11 3 5 3 6 2 3 6 4 1 4-1-2 4-9 11-12 14-7 7-7 8-8 8-8 7-7 7-11 9-14 12-19 14-14 10-15 10-22 13-16 8-28 13-23 9-36 11-2-1 15-7 11-5h4v-2l8-3h2v-2l7-3 7-6 7-3 12-9 9-8 5-5 8-9 4-5 5-4 3-6 4-5 5-5 2-5 4-4 4-10 10-19 8-20 6-22 2-1 2-6 1-8h2v-8l6-4 13-2 11-5h2v-2l9-2z" fill="#DABFB4"/>
<path transform="translate(601,248)" d="m0 0 6 1 13-1 5 2 9 1 6 3 1 3 7-1 6 5 8 3v6h6v5h2l-3 9 2 1-2 3-2 7-1 4-7 2-9 5-10 6-11 7-4 1v2l-15 10-7 6h-2l-1 3-11 9-13 8-16 7-13 1-1 1-1 11h-1l-4-27-6-22-6-16-11-23-7-11 1-2 2 2 4 1 1-2 10-8 28-14 7-1 18-3 10-2 3 1z" fill="#7B9BC8"/>
<path transform="translate(705,323)" d="m0 0h1v7l-8 26-9 21-10 20-13 21-11 16-7 9-6 2v-2l-4 1-3-7-9-3-12-5v-2h-2v-2l-8-1-5-5-5-2-6-5-12 3-4-1-5-1-5 2-7-1-4-4-3-6 2-4h2v-2l9-2 3-3h2l1-3 4-1v-2l5-3h3l1-3h2l1-3 8-7 10-7 4-2 5-5 5-3 4-3 9-5 3-4 12-3 7-3 16-4 15-4 17-2z" fill="#A882B4"/>
<path transform="translate(560,172)" d="m0 0h36l22 3-4 2-2 6-1 6-9 7-3 3-5 2-4 3-15 4h-3v3l-4 1-3 3-9 4-6 5-10 2-25 11-3 2-12 3-4 3-3 7-6-1-11-11-4-5-8-7-15-12-10-7-5-1v-1l9-3 21-9 36-12 25-6 25-4z" fill="#B29CC2"/>
<path transform="translate(709,293)" d="m0 0 2 1v9l-4 23-2-2-7 3-17 2-25 6-10 3-9 4h-6l-2 4-7 5-6 3-3 3-6 3-4 4-11 7-5 4-5 6-3 3-6 3h-2v2l-4 2-3 3h-2l-1 3-9 1v2h-2l-1 5 3 5v2l6 2 7-1 6-1 5 4-10 5-10 2-6 1-5 3-1 8h-2v8l-3 7-1-3 4-24 1-11v-45l2-2 13-1 20-9 10-7 10-8 5-5 8-6 10-7h2v-2l11-6 9-6 9-5 7-4h5l1-3h3l1 2 4 1h8l7 2 7 1 5-1 2 1v-2h2l2-5z" fill="#9592BC"/>
<path transform="translate(586,411)" d="m0 0 5 2 4 4 7 3 2 4 8 1v2h2v2l11 3 5 3 6 2 3 6 4 1 4-1-2 4-9 11-12 14-7 7-5 6-8 1-5-2-6-1-9-3-6-3v-2l-6-2-7-3h-10l-5 2-9-1-8 5-1 2h-2l-1 7h-2l3-10 7-25 2-1 2-6 1-8h2v-8l6-4 13-2 11-5h2v-2l9-2z" fill="#C998B4"/>
<path transform="translate(634,183)" d="m0 0h10l16 8 11 7 13 12 9 11 9 16 5 13-1 3-3 1-5 8h-8l-10-3-5-3-12 1-12-5-7-3-7-2-4-3-8-3-2-1v-2l-4-2-2-4 2-1-4-5-2-6h2l-2-15 3-2 1-5-2-6 6-5 11-3 2 1z" fill="#94B2CA"/>
<path transform="translate(672,360)" d="m0 0h9l10 4 2 4-11 23-9 16-11 17-12 17-5 3-3 1v-2l-4 1-3-7-9-3-12-5v-2h-2v-2l-8-1-5-5-5-2-5-6h2l2-4 6-4 5-5 3-1 2-4 11-8 5-5 4-5 13-5 10-4z" fill="#C37DAC"/>
<path transform="translate(543,396)" d="m0 0h1v16l-3 24-3 1-2-4-3-1-4 2h-3l-15 3-8 4-7 2-3 2-4-2-8 5-4 3-7-1-9 5-15 6-6 1h-16l-6 4-11 11h-2v2h-2v2h-2v2h-2v2l-5 3-3 1-1 2v-3l9-10 10-13 9-16 5-13h5l1-6 5-5h2l2-4 3-3h2v2h4l-1-3 5 2 7-2 5-2 5-4 2 3h3l4-4 6-1 1 2 7-5h4l-1 5h4l1-3 2 2 10-1v3l6-3 5-1 4-2h4l1-3 6 1v3l2 1 1 4h2z" fill="#357999"/>
<path transform="translate(587,204)" d="m0 0h3l-1 4h-3l1 6-4 1v4l-2 1-1 5h-3l-1 4-6 6-3 1-1 4-5 1v4l-4 1v3l-2 1v4l-3 2v2l-21 11-8 4-4 4h-2l-1 2-5 1-5-4-9-13-9-11 2-1h3l3-7 6-4 10-2 16-8 15-6 7-1 3-1 1-3 9-4 4-1 1-3h4v-3z" fill="#989DC5"/>
<path transform="translate(562,308)" d="m0 0h11l3 2 4-1 3-1 3 3 3 1v3l3-1 2 2 2 1-1 3 3 3v2l2 1-2 4 2 7-2 4-11 9-13 8-16 7-13 1-1 1-1 11h-1l-4-27-6-22-2-9 2 2 2 4 2 2 1 3v-8l-1-4 1-3h3l1-4 4-2h8 3z" fill="#7292BE"/>
<path transform="translate(542,435)" d="m0 0 2 1 2 9 1 1 14 1 10 4 1 3 5 2v2l6 1 1 2 6 3 7 4 12 5 5 3 4 2-6 7-8 1-5-2-6-1-9-3-6-3v-2l-6-2-7-3h-10l-5 2-9-1-8 5-1 2h-2l-1 7h-2l3-10 7-25 2-1 2-6z" fill="#CCADB9"/>
<path transform="translate(300,172)" d="m0 0h24l22 2 25 5 19 6 20 8 20 10 4 3-2 4-3 2-3-1 3-3-9-3-7-4v-2l-5-2-12-5-16-6-24-6-24-3-10-1h-19l-18 2-15 3-18 5-7 2-19 6-8 4-23 13-6 5-5 3h-2v2h-2v2l-15 9-1 2h-2l-2 4-3 1-2 4-3 3h-2v2h-4l2-4 10-10 11-9 10-8 18-12 22-12 20-8 20-6 24-5z" fill="#59B9D4"/>
<path transform="translate(186,480)" d="m0 0h1v7l-2 13v28l4 21 6 16 6 11 8 11 12 12 17 12 3 3 11 4-3 1-21-7-11-5-16-8-12-8-14-10-14-12-18-18-11-14-10-14-7-13h3l6 10 7 8 1 3 3 1 3 7 4 3v2h2l7 8v2l4 2 1 2 3 1 5 6 7 5 2 2 8 6 14 10 6 4 6 2h5l-6-7-9-13-6-12-5-15-3-18-1-17 2-21z" fill="#53BAD5"/>
<path transform="translate(204,434)" d="m0 0 3 1 8 19 7 12 3 4v2h2l7 8 9 9 13 9 17 8 15 5 18 3 21 1-2 2-4 1h-13l-2-1-19-2-7-1v-2l-7 1v-2l-8-1-5-1-7-3v-2l-7-2-5-4-1-2-3-1v-2h-2v-2l-5-2-6-7-2-1-1-3-4-3-6-11-5-14-1-5-2-4-2-1 1-5z" fill="#3C7C9C"/>
<path transform="translate(708,283)" d="m0 0h3v11l-5 1-2 5h-2v2h-6l-5 1-4-2-7-1h-7l-5-2v-2l-5 1 2-3 1-6 2-1 13 1v-2l10 1 14-1z" fill="#989DC6"/>
<path transform="translate(357,253)" d="m0 0 2 1 1 5 3 6-2 4h-2l-1 6-4 5-5 1-3 1-2 2-11 2-2 1-2-1 2-6 2-3 2-6 5-5h2v-2z" fill="#347899"/>
<path transform="translate(327,173)" d="m0 0h10l20 3 21 5 20 7 18 8 17 9v4l-4 3-3-1 3-3-9-3-7-4v-2l-5-2-12-5-16-6-24-6-24-3-6-2z" fill="#54B9D5"/>
<path transform="translate(545,404)" d="m0 0 4 1 3 5v2l6 2 7-1 6-1 5 4-10 5-10 2-6 1-5 3-1 8h-2v8l-3 7-1-3 3-17h2l1-14z" fill="#B39CC3"/>
<path transform="translate(213,454)" d="m0 0h2l7 12 3 4v2h2l7 8 9 9 13 9 6 3-1 2-7-1-10-6-7-6-6-4-6-7-2-1v-3h-2l-6-9-3-7z" fill="#3B76A0"/>
<path transform="translate(211,197)" d="m0 0 4 1-4 4-16 9-6 5-5 3h-2v2h-2v2l-15 9-1 2h-2l-2 4-3 1-2 4-3 3h-2v2h-4l2-4 10-10 11-9 10-8 18-12z" fill="#55B1CC"/>
<path transform="translate(143,250)" d="m0 0 2 1-1 3h-2v2h-2l-1 5-5 8-7 10-10 17-7 13-6 12-3-1 8-18 9-17 9-14 10-14z" fill="#56BAD5"/>
<path transform="translate(341,264)" d="m0 0 1 2-7 6-2 9h-2l-2 5 7 1v1l-33-1v-1l11-1 11-8 9-8z" fill="#59B8D3"/>
<path transform="translate(292,285)" d="m0 0h5v2l2 1-18 4-12 4-17 9-5 3-1-2h2v-2l5-5h3v-2l12-5 10-4h9v-2z" fill="#58BAD5"/>
<path transform="translate(349,259)" d="m0 0 1 2-3 4h-2v3h-2l-1 9-3 1-2 5-6 4-2-1 2-6 2-3 2-6 5-5h2v-2z" fill="#3B8896"/>
<path transform="translate(525,447)" d="m0 0h3l3 6 6-2-2 11-5 15h-1v-8l-1-2h2v-2h2l-3-8-3 3-3-6 1-5z" fill="#357999"/>
<path transform="translate(421,601)" d="m0 0h2l-1 3-2 2-2 3-29 9-2-1 15-7 11-5h4v-2z" fill="#C1AAB9"/>
<path transform="translate(168,226)" d="m0 0m-2 1 2 1-4 6h-2l-2 4-3 1-2 4-3 3h-2v2h-4l2-4 10-10z" fill="#5DB8D3"/>
<path transform="translate(539,350)" d="m0 0h2v2l2 1v3l1 5 5 2-1 2-4 2-1 11h-1l-3-21z" fill="#7797C3"/>
<path transform="translate(446,594)" d="m0 0 2 4-20 8-4-1 3-3 13-6h6z" fill="#D1B1B7"/>
<path transform="translate(292,285)" d="m0 0h5v2l2 1-18 4-10 2 2-4 5-2h9v-2z" fill="#57BCD6"/>
<path transform="translate(293,514)" d="m0 0h13l21 1-2 2-4 1h-13l-2-1-12-1z" fill="#4A83A5"/>
<path transform="translate(411,606)" d="m0 0 2 1-7 4-1 2-16 5-2-1 15-7z" fill="#999CBC"/>
<path transform="translate(107,493)" d="m0 0 4 2 5 13-2 1-7-14z" fill="#55BCD7"/>
<path transform="translate(542,361)" d="m0 0 5 1 2 2-5 3-1 11h-1z" fill="#7999C6"/>
<path transform="translate(115,510)" d="m0 0h3l6 10-1 4-6-10z" fill="#5ABCD7"/>
<path transform="translate(292,285)" d="m0 0h5v2l2 1-13 2-1-2h2v-2z" fill="#5DBBD5"/>
<path transform="translate(423,436)" d="m0 0 4 1-2 1-1 8h-4z" fill="#467CA6"/>
<path transform="translate(541,430)" d="m0 0h1v13l-3 7-1-3z" fill="#9398C1"/>
<path transform="translate(107,311)" d="m0 0 1 3-4 7-3-1 3-7z" fill="#59BCD6"/>
<path transform="translate(221,192)" d="m0 0 2 1-5 5-4 1-1-3z" fill="#5EB0CC"/>
</svg>
