<?xml version="1.0" encoding="UTF-8"?>
<svg version="1.1" viewBox="0 0 2048 864" width="1280" height="1280" xmlns="http://www.w3.org/2000/svg">
<path transform="translate(0)" d="m0 0h2048v864h-2048z" fill="#fff"/>
<path transform="translate(661,75)" d="m0 0h81l-2 19-4 31-5 36-21 1h-37l-133-1v9l-4 27-1 12-3 10-2 18h178v9l-9 65-2 11-180 1-2 26-3 12-2 25-5 19h202l-9 66-3 18-4 1h-288l2-17 7-48 14-101 4-31 4-25 16-116 8-56 2-17 1-3z" fill="#010101"/>
<path transform="translate(1526,199)" d="m0 0h10l27 3 19 5 16 6 15 8 12 9 12 11 11 14 10 19 6 18 3 14 1 11v12l-2 22-5 23-6 16-8 16-7 12-9 12-12 13-11 11-16 12-16 9-16 8-22 7-24 5-10 1h-33l-17-2-17-4-16-6-17-9-14-10-15-15-9-14-8-16-6-18-3-16v-27l2-15 5-23 8-20 8-16 8-12 10-13 10-11 11-9 14-11 21-12 14-6 20-6 12-3 18-2z" fill="#010101"/>
<path transform="translate(249,66)" d="m0 0h30l31 4 22 6 21 9 16 10 11 9 4 4-2 4-7 7-8 7-17 17-8 7-16 16-8 7-5 4-9-9-11-7-11-5-16-4-8-1h-14l-16 2-15 5-9 5-10 9-6 8-5 14v9l5 12 6 7 9 6 17 8 31 10 23 7 23 10 15 8 12 9 10 10 7 10 6 14 4 16 1 7v14l-5 30-5 16-7 16-8 14-9 12-14 15-14 11-10 7-16 9-24 9-18 5-23 4-9 1h-35l-19-2-23-5-21-7-21-11-14-10-15-13-3-5 15-14 8-7 9-9 8-7 13-12 13-13 9-7 5 5 9 10 8 7 14 8 14 5 17 2h11l17-2 17-5 11-6 10-9 7-10 2-4 1-6v-12l-3-8-6-8-11-8-15-8-30-11-35-12-15-7-15-8-12-9-13-13-8-13-4-10-4-11-1-5v-24l2-8 2-6 3-14 6-17 10-19 10-13 8-10 12-11 14-10 15-9 21-10 23-7 19-4z" fill="#010101"/>
<path transform="translate(922,199)" d="m0 0h13l31 3 21 6 16 8 9 6 9 9 8 13 6 14 4 21 1 9v21l-4 40-4 25-8 61-3 22-5 30-3 3h-78l1-11 3-16 1-9-5 5-6 7-13 10-14 8-21 8-14 3-8 1h-31l-14-2-18-6-13-7-11-9-8-10-6-12-5-15v-26l7-24 5-12 9-13 10-10 15-11 14-8 16-7 19-6 20-4 27-3 38-2 28-1-2-17-7-14-8-8-14-7-10-3h-20l-24 7-16 8-11 7-12 11-4-2-11-13-8-10-11-13-7-8 2-4 21-14 18-10 20-8 18-5 13-3z" fill="#010101"/>
<path transform="translate(1901,199)" d="m0 0 22 1 18 3 14 5 11 6 12 11 9 14 4 10 4 21v34l-5 45-12 84-7 52-1 4-6 1h-83l4-22 12-89 6-44 2-15-1-12-6-16-7-9-7-4-14-2-17 1-11 3-9 5-10 9-7 11-5 12-5 19-2 18-3 14-4 31-10 71-3 16-3 3h-76l-9-1 4-29 3-19 10-73 5-37 5-34 8-57 4-33 2-1h83l-1 15-2 14v8l12-14 14-11 13-8 15-6 11-3z" fill="#010101"/>
<path transform="translate(1201,200)" d="m0 0h38l22 3 21 6 16 8 9 6 10 9 3 3-2 4-14 12-11 10-11 9-14 13-8 6-12-12-13-7-14-3h-15l-10 2-10 4-7 8-1 3v15l10 6 14 5 43 11 18 6 17 8 9 7 7 7 7 11 4 10 2 11v17l-3 18-3 12-8 14-10 13-11 10-10 7-14 8-16 7-21 5-30 4h-38l-22-3-20-5-17-7-11-7-10-8-7-8 2-4 8-6 16-15 19-19h2l2-4 10-9 4-2 6 9 3 3v2l4 2 10 7 10 5 15 2h13l17-2 11-4 5-4 3-6v-10l-3-7-14-7-33-9-17-4-24-8-17-9-8-7-8-11-5-10-3-16v-9l3-20 5-16 8-16 9-12 11-11 14-10 16-9 21-7 18-4z" fill="#010101"/>
<path transform="translate(1504,277)" d="m0 0h27l11 2 17 9 7 6 7 11 4 10 2 19-1 18-3 12-6 15-8 12-10 11-10 7-11 5-13 4-5 1h-30l-16-5-10-7-8-8-8-16-3-11v-19l4-20 6-15 7-11 9-10 10-9 15-7 9-3z" fill="#fff"/>
<path transform="translate(1261,668)" d="m0 0h11l17 4 10 6 8 9 3 8v24l-2 10-6 15-6 10-9 10-7 7-14 7-15 4h-13l-15-4-9-6-7-7-4-8-1-5v-16l3-16 8-17 9-13 12-12 14-7z" fill="#010101"/>
<path transform="translate(1504,666)" d="m0 0h17l12 3 9 5 8 9 2 4v5l-6 2-20 1-10-11-2-1h-7l-10 6-5 5-7 9-1 4 10-3 5-2h10l20 7 6 4 6 7 4 10v11l-4 12-7 11-10 7-13 6-9 2h-22l-12-3-11-8-8-11-3-9v-23l4-15 8-16 9-10 8-7 11-6 11-4z" fill="#010101"/>
<path transform="translate(521,673)" d="m0 0h8l20 4 12 6 9 7 7 12-1 5h-29l-6-9-9-4-5-1h-18l-10 3-4 4-1 6 5 5 12 5 36 12 12 7 6 9 1 2v13l-5 10-9 8-12 6-13 4-6 1h-34l-16-4-10-4-8-6-6-9-4-8 1-4 26-4h4l3 10 1 3 4 2 5 3h31l11-2 5-5v-8l-8-6-36-12-12-5-8-6-4-5-2-6v-12l4-10 8-7 13-6 13-3z" fill="#010101"/>
<path transform="translate(927,365)" d="m0 0h23l1 1-1 19-3 12-5 10-11 12-11 7-13 6-12 3-13 2h-11l-16-3-10-7-6-10-1-10 4-12 6-9 9-7 12-6 15-4 21-3z" fill="#fff"/>
<path transform="translate(1140,669)" d="m0 0h10l19 3 12 6 7 7 4 10v9l-6 12-9 9-19 14-15 11-14 10 54 1-2 5-2 2-2 13-34 1h-62l3-9 6-11 10-10 16-12 13-9 16-11 6-4 7-8 4-8-1-6-4-4-5-2h-12l-6 3-6 8-3 6-29-4-1-2 8-13 7-7 10-6 6-2z" fill="#010101"/>
<path transform="translate(954,700)" d="m0 0h11l16 2 14 7 7 8 4 10v14l-1 6-3 1-71 1-1 7 3 6 10 5h14l9-3 8-6h12l15 1-1 5-9 8-12 7-13 4-6 1h-17l-16-3-10-4-9-7-5-7-3-9v-13l2-8 6-11 10-10 10-6 12-4z" fill="#010101"/>
<path transform="translate(722,702)" d="m0 0h21l9 5 5 2 5 9v10l-3 10-8 30-3 10-2 5h-30l2-10 11-38 2-6v-5l-7-5-7-1-9 2-9 5-7 6-5 10-7 23-5 19-2 2h-25l-4-1 4-16 11-39 5-18 3-7h28l-2 5v3l8-2 7-4z" fill="#010101"/>
<path transform="translate(839,701)" d="m0 0 20 1 15 5 8 5 7 10 1 5-14 2h-14l-8-9-2-1h-18l-10 5-8 9-4 14v9l4 8 2 2 4 1h9l9-2 8-5 3-6 2-1h14l12 5v4l-11 11-10 6-10 4-23 4-22-5-10-6-5-5-4-5-3-8-1-10 3-14 6-10 9-9 9-6 21-7z" fill="#010101"/>
<path transform="translate(1401,667)" d="m0 0h17l-2 11-7 25-4 13-16 56-2 5-3 1h-26l-1-2 14-51 5-17 3-5-32 10-12 1-1-2 4-10 2-6 9-4 25-10 17-9 7-5z" fill="#010101"/>
<path transform="translate(1261,687)" d="m0 0h13l4 2 4 9-1 12-3 16-5 15-7 13-7 7-7 2h-11l-6-3-2-3-1-14 1-13 7-20 7-13 5-5 6-4z" fill="#fff"/>
<path transform="translate(635,704)" d="m0 0h2l-2 10-14 50-6 21-1 1h-28l-1-5 9-31 8-30 5-15z" fill="#010101"/>
<path transform="translate(1494,718)" d="m0 0h9l6 3 7 8v13l-5 10-9 8-9 3-10-2-7-8v-18l6-11 8-5z" fill="#fff"/>
<path transform="translate(952,716)" d="m0 0h13l8 3 6 7 1 9-3 1h-45l1-5 6-8 9-6z" fill="#fff"/>
<path transform="translate(1590,756)" d="m0 0 4 1-3 14-3 6-2 1h-21l-6-1 2-9 2-10 1-1z" fill="#010101"/>
<path transform="translate(645,674)" d="m0 0 2 1-2 6-2 3-2 8-2 1h-27l-1-5 5-12 1-1z" fill="#010101"/>
</svg>
