<svg xmlns="http://www.w3.org/2000/svg" width="424" height="500"><path d="M31.487 161.758C14.453 161.75.648 175.59.644 192.61l.02 129.171c.005 17.08 13.819 30.864 30.856 30.86 17.046 0 30.856-13.785 30.839-30.856V192.593c-.009-17.017-13.831-30.843-30.872-30.835m248.763-116l21.53-39.315c1.147-2.055.395-4.669-1.685-5.833-2.101-1.114-4.694-.357-5.808 1.71l-21.749 39.728c-18.298-8.145-38.777-12.709-60.445-12.688-21.61-.021-42.08 4.53-60.303 12.629L130.016 2.363a4.248 4.248 0 00-5.791-1.707c-2.093 1.13-2.862 3.75-1.698 5.8l21.538 39.29c-42.32 21.824-70.914 63.388-70.889 111.108l277.867-.034c.008-47.703-28.536-89.183-70.793-111.061m-131.356 60.756c-6.392-.012-11.612-5.215-11.612-11.645 0-6.4 5.203-11.662 11.625-11.658 6.442-.004 11.654 5.257 11.662 11.658 0 6.421-5.224 11.641-11.675 11.645m126.523-.02c-6.421.008-11.65-5.2-11.65-11.646.026-6.388 5.22-11.65 11.654-11.675 6.393.021 11.633 5.287 11.629 11.68.013 6.43-5.211 11.644-11.633 11.64M74.311 167.587l.046 200.19c-.012 18.21 14.718 32.91 32.915 32.91l22.412.01.025 68.35c-.004 17.02 13.831 30.856 30.826 30.856 17.046 0 30.856-13.848 30.86-30.877l-.017-68.334 41.644-.012.016 68.346c0 17.008 13.84 30.872 30.839 30.839 17.046.012 30.864-13.835 30.86-30.864l-.021-68.33 22.492-.017c18.155.009 32.923-14.709 32.931-32.923l-.038-200.19-275.79.046zm349.378 24.976c-.005-17.041-13.81-30.85-30.852-30.843-17.033-.016-30.834 13.814-30.834 30.856l.025 129.179c-.004 17.054 13.797 30.839 30.843 30.843 17.037-.004 30.834-13.789 30.839-30.86l-.021-129.175z" fill="#A4C439" fill-rule="nonzero"/></svg>