<svg xmlns="http://www.w3.org/2000/svg" width="800px" height="800px" preserveAspectRatio="xMidYMid" version="1.1" viewBox="0 -204.5 512 512">
	<title>Group</title>
	<g fill="none" fill-rule="evenodd">
		<g fill="#D33C44">
			<path d="m87.864 27.716c0 28.972 75.259 52.488 168.11 52.488v52.466c-92.854 0-168.11-23.494-168.11-52.466zm336.27 0v52.477c0 12.37-13.752 23.718-36.651 32.695l-131.52-32.695v-52.477l131.52 32.683c22.899-8.9662 36.662-20.315 36.651-32.683zm-168.16-157.48c92.862 0 168.16 23.537 168.16 52.488v52.52c0 12.327-13.752 23.718-36.64 32.652l-131.52-32.652v52.466c-92.854 0-168.11-23.505-168.11-52.466v-52.52c0-28.95 75.259-52.488 168.11-52.488z" stroke-width="2.5592"/>
			<g transform="matrix(1.3782 0 0 1.3782 -206.94 145.16)">
				<path d="m357.67 24.715v54.512h11.994v-16.354h9.1012c12.226 0 22.038-6.5408 22.042-19.154v-0.15c0-11.146-7.8668-18.855-20.866-18.855zm52.01 0v54.512h11.99v-21.894h22.118v21.894h11.99v-54.512h-11.99v21.572h-22.118v-21.572zm59.176 0v54.512h11.994v-16.354h9.1175c12.222 0 22.034-6.5408 22.03-19.154v-0.15c0-11.146-7.8718-18.855-20.871-18.855zm-99.196 10.83h9.2638c6.001 0 9.7325 2.8794 9.7325 8.2488v0.16625c0 4.6629-3.5035 8.2588-9.4962 8.2588h-9.5zm111.19 0h9.2675c5.9969 0 9.7325 2.8794 9.7325 8.2488v0.16625c0 4.6629-3.504 8.2588-9.505 8.2588h-9.495z"/>
				<path d="m264.56 22.376v56.851h11.828v-12.691l4.13-4.36 10.905 17.051h13.544l-16.428-25.312 15.884-16.424h-14.168l-13.868 15.189v-30.304zm-76.315 1.4088c-16.74 0-28.418 12.7-28.418 28.192v0.15c0 15.655 11.911 28.04 27.956 28.04 10.51 0 16.741-3.7402 22.339-9.7412l-7.6312-7.705c-4.2805 3.8982-8.0904 6.3875-14.32 6.3875-9.3465 0-15.805-7.7889-15.805-17.131v-0.16125c0-9.3423 6.6123-16.972 15.805-16.972 5.4483 0 9.733 2.3349 13.939 6.15l7.63-8.7975c-5.0576-4.9787-11.218-8.4112-21.495-8.4112zm139.06 12.924c-12.148 0-20.642 9.8127-20.642 21.728v0.1625c0 12.771 9.2768 21.569 21.815 21.569 7.5512 0 13.156-2.9597 17.059-7.7888l-6.7812-6.0012c-3.2706 3.0338-6.147 4.285-10.12 4.285-5.2987 0-9.0389-2.8007-10.202-8.17h29.045c0.079-1.093 0.15375-1.796 0.15375-2.9638v-0.15375c0-11.84-6.3876-22.666-20.326-22.666zm-91.558 0.3125c-7.0816 0-11.599 1.3178-16.195 3.35l2.9625 9.03c3.8151-1.3964 7.0068-2.2562 11.52-2.2562 5.9221 0 8.96 2.7303 8.96 7.63v0.69375c-2.9631-1.0099-6.0001-1.7125-10.21-1.7125-9.8867 0-16.815 4.2062-16.815 13.32v0.1625c0 8.2535 6.4663 12.77 14.325 12.77 5.7683 0 9.7379-2.1021 12.614-5.2938v4.5125h11.458v-24.211c0-11.3-5.6899-17.995-18.619-17.995zm91.561 9.1925c4.9828 0 8.096 3.5738 8.8025 8.8725h-17.836c0.86663-4.9986 3.6988-8.3794 8.0425-8.8225 0.32217-0.0329 0.65265-0.05 0.99125-0.05zm-91.71 14.638c2.8758 0 5.5303 0.61413 7.55 1.5575v2.0988c0 4.293-3.744 7.3188-9.2712 7.3188-3.8109 0-6.4625-1.87-6.4625-5.0575v-0.15375c0-3.7403 3.1219-5.7638 8.1838-5.7638z" fill="#000"/>
			</g>
		</g>
	</g>
</svg>