<svg xmlns="http://www.w3.org/2000/svg" width="200" height="200" viewBox="0 0 200 200" fill="none">
<rect x="0.5" y="0.5" width="199" height="199" rx="1.5" stroke="#E5E5E5"/>
<path d="M33.252 46V27.8H38.296L47.552 38.876H45.212V27.8H51.192V46H46.148L36.892 34.924H39.232V46H33.252ZM61.8185 46.26C60.0851 46.26 58.5685 45.9393 57.2685 45.298C55.9858 44.6567 54.9891 43.7813 54.2785 42.672C53.5678 41.5453 53.2125 40.28 53.2125 38.876C53.2125 37.4373 53.5591 36.1633 54.2525 35.054C54.9631 33.9447 55.9251 33.078 57.1385 32.454C58.3691 31.83 59.7471 31.518 61.2725 31.518C62.6765 31.518 63.9678 31.7953 65.1465 32.35C66.3425 32.9047 67.2958 33.728 68.0065 34.82C68.7345 35.912 69.0985 37.264 69.0985 38.876C69.0985 39.084 69.0898 39.318 69.0725 39.578C69.0551 39.8207 69.0378 40.046 69.0205 40.254H58.0745V37.42H65.9005L63.6905 38.174C63.6905 37.6193 63.5865 37.1513 63.3785 36.77C63.1878 36.3713 62.9191 36.068 62.5725 35.86C62.2258 35.6347 61.8098 35.522 61.3245 35.522C60.8391 35.522 60.4145 35.6347 60.0505 35.86C59.7038 36.068 59.4351 36.3713 59.2445 36.77C59.0538 37.1513 58.9585 37.6193 58.9585 38.174V39.058C58.9585 39.6647 59.0798 40.1847 59.3225 40.618C59.5651 41.0513 59.9118 41.3807 60.3625 41.606C60.8131 41.814 61.3591 41.918 62.0005 41.918C62.6591 41.918 63.1965 41.8313 63.6125 41.658C64.0458 41.4847 64.4965 41.2247 64.9645 40.878L68.0325 43.972C67.3391 44.7173 66.4811 45.2893 65.4585 45.688C64.4531 46.0693 63.2398 46.26 61.8185 46.26ZM77.8168 46.26C75.8581 46.26 74.3328 45.792 73.2408 44.856C72.1488 43.9027 71.6028 42.4467 71.6028 40.488V28.58H77.4788V40.436C77.4788 40.8693 77.5915 41.2073 77.8168 41.45C78.0595 41.6927 78.3541 41.814 78.7008 41.814C79.2035 41.814 79.6455 41.684 80.0268 41.424L81.4308 45.506C80.9801 45.766 80.4341 45.9567 79.7928 46.078C79.1688 46.1993 78.5101 46.26 77.8168 46.26ZM69.6528 36.848V32.558H80.3908V36.848H69.6528ZM83.0938 46V27.8H92.8178C95.3311 27.8 97.1858 28.2507 98.3818 29.152C99.5778 30.036 100.176 31.1713 100.176 32.558C100.176 33.4767 99.9158 34.3 99.3958 35.028C98.8931 35.7387 98.1565 36.302 97.1858 36.718C96.2151 37.134 95.0191 37.342 93.5978 37.342L94.1178 35.938C95.5391 35.938 96.7611 36.1373 97.7838 36.536C98.8238 36.9347 99.6211 37.5153 100.176 38.278C100.748 39.0233 101.034 39.9247 101.034 40.982C101.034 42.5593 100.375 43.79 99.0578 44.674C97.7578 45.558 95.8511 46 93.3378 46H83.0938ZM89.1258 41.71H92.8178C93.4938 41.71 93.9965 41.5887 94.3258 41.346C94.6725 41.1033 94.8458 40.748 94.8458 40.28C94.8458 39.812 94.6725 39.4567 94.3258 39.214C93.9965 38.9713 93.4938 38.85 92.8178 38.85H88.7098V34.794H91.9858C92.6791 34.794 93.1818 34.6813 93.4938 34.456C93.8231 34.2133 93.9878 33.8753 93.9878 33.442C93.9878 32.9913 93.8231 32.6533 93.4938 32.428C93.1818 32.2027 92.6791 32.09 91.9858 32.09H89.1258V41.71ZM110.613 46.26C108.88 46.26 107.363 45.9393 106.063 45.298C104.78 44.6567 103.784 43.7813 103.073 42.672C102.362 41.5453 102.007 40.28 102.007 38.876C102.007 37.4373 102.354 36.1633 103.047 35.054C103.758 33.9447 104.72 33.078 105.933 32.454C107.164 31.83 108.542 31.518 110.067 31.518C111.471 31.518 112.763 31.7953 113.941 32.35C115.137 32.9047 116.091 33.728 116.801 34.82C117.529 35.912 117.893 37.264 117.893 38.876C117.893 39.084 117.885 39.318 117.867 39.578C117.85 39.8207 117.833 40.046 117.815 40.254H106.869V37.42H114.695L112.485 38.174C112.485 37.6193 112.381 37.1513 112.173 36.77C111.983 36.3713 111.714 36.068 111.367 35.86C111.021 35.6347 110.605 35.522 110.119 35.522C109.634 35.522 109.209 35.6347 108.845 35.86C108.498 36.068 108.23 36.3713 108.039 36.77C107.849 37.1513 107.753 37.6193 107.753 38.174V39.058C107.753 39.6647 107.875 40.1847 108.117 40.618C108.36 41.0513 108.706 41.3807 109.157 41.606C109.608 41.814 110.154 41.918 110.795 41.918C111.454 41.918 111.991 41.8313 112.407 41.658C112.841 41.4847 113.291 41.2247 113.759 40.878L116.827 43.972C116.134 44.7173 115.276 45.2893 114.253 45.688C113.248 46.0693 112.035 46.26 110.613 46.26ZM128.353 46V43.478L127.937 42.802V38.018C127.937 37.3247 127.721 36.796 127.287 36.432C126.871 36.068 126.187 35.886 125.233 35.886C124.592 35.886 123.942 35.99 123.283 36.198C122.625 36.3887 122.061 36.6573 121.593 37.004L119.721 33.13C120.553 32.61 121.55 32.2113 122.711 31.934C123.873 31.6567 125.008 31.518 126.117 31.518C128.561 31.518 130.451 32.064 131.785 33.156C133.137 34.248 133.813 35.9813 133.813 38.356V46H128.353ZM124.323 46.26C123.162 46.26 122.191 46.0607 121.411 45.662C120.631 45.2633 120.042 44.7347 119.643 44.076C119.245 43.4 119.045 42.6547 119.045 41.84C119.045 40.9213 119.279 40.1413 119.747 39.5C120.215 38.8587 120.926 38.3733 121.879 38.044C122.85 37.7147 124.072 37.55 125.545 37.55H128.509V40.384H126.481C125.857 40.384 125.398 40.488 125.103 40.696C124.826 40.8867 124.687 41.1813 124.687 41.58C124.687 41.9093 124.809 42.1867 125.051 42.412C125.311 42.62 125.658 42.724 126.091 42.724C126.49 42.724 126.854 42.62 127.183 42.412C127.53 42.1867 127.781 41.84 127.937 41.372L128.691 43.114C128.466 44.1713 127.989 44.96 127.261 45.48C126.533 46 125.554 46.26 124.323 46.26ZM145.453 31.518C146.545 31.518 147.533 31.7433 148.417 32.194C149.301 32.6273 149.994 33.312 150.497 34.248C151.017 35.184 151.277 36.3973 151.277 37.888V46H145.401V38.902C145.401 38.018 145.245 37.394 144.933 37.03C144.621 36.6487 144.196 36.458 143.659 36.458C143.26 36.458 142.888 36.5533 142.541 36.744C142.212 36.9173 141.943 37.212 141.735 37.628C141.544 38.044 141.449 38.6073 141.449 39.318V46H135.573V31.778H141.163V35.938L140.045 34.742C140.6 33.6673 141.345 32.8613 142.281 32.324C143.234 31.7867 144.292 31.518 145.453 31.518ZM159.393 46.26C158.179 46.26 156.983 46.13 155.805 45.87C154.626 45.61 153.673 45.272 152.945 44.856L154.557 40.982C155.233 41.3807 156.013 41.6927 156.897 41.918C157.798 42.1433 158.673 42.256 159.523 42.256C160.233 42.256 160.71 42.1953 160.953 42.074C161.213 41.9527 161.343 41.788 161.343 41.58C161.343 41.372 161.195 41.2247 160.901 41.138C160.606 41.034 160.216 40.956 159.731 40.904C159.245 40.852 158.708 40.7913 158.119 40.722C157.547 40.6353 156.966 40.514 156.377 40.358C155.787 40.202 155.25 39.968 154.765 39.656C154.279 39.344 153.889 38.928 153.595 38.408C153.3 37.8707 153.153 37.1947 153.153 36.38C153.153 35.4787 153.421 34.664 153.959 33.936C154.513 33.208 155.328 32.6273 156.403 32.194C157.495 31.7433 158.838 31.518 160.433 31.518C161.473 31.518 162.513 31.6133 163.553 31.804C164.593 31.9947 165.485 32.2893 166.231 32.688L164.619 36.562C163.891 36.1633 163.171 35.8947 162.461 35.756C161.767 35.6 161.117 35.522 160.511 35.522C159.765 35.522 159.254 35.5913 158.977 35.73C158.717 35.8687 158.587 36.0247 158.587 36.198C158.587 36.406 158.734 36.562 159.029 36.666C159.323 36.77 159.713 36.848 160.199 36.9C160.684 36.952 161.213 37.0213 161.785 37.108C162.374 37.1773 162.955 37.2987 163.527 37.472C164.116 37.628 164.653 37.862 165.139 38.174C165.624 38.486 166.014 38.9107 166.309 39.448C166.603 39.968 166.751 40.6353 166.751 41.45C166.751 42.2993 166.482 43.0967 165.945 43.842C165.407 44.57 164.593 45.1593 163.501 45.61C162.409 46.0433 161.039 46.26 159.393 46.26Z" fill="#131031"/>
<path fill-rule="evenodd" clip-rule="evenodd" d="M99.7422 74V93.5937L72.8255 109.229L55.8047 99.3333L99.7422 74Z" fill="#A1C535"/>
<path fill-rule="evenodd" clip-rule="evenodd" d="M143.68 99.3333L126.659 109.229L99.7422 93.5937V74L143.68 99.3333Z" fill="#ADD439"/>
<path fill-rule="evenodd" clip-rule="evenodd" d="M143.679 150L126.658 140.104V109.229L143.679 99.3333V150Z" fill="#1B6AC6"/>
<path fill-rule="evenodd" clip-rule="evenodd" d="M99.7422 175.333V155.74L126.659 140.104L143.68 150L99.7422 175.333Z" fill="#2E90E8"/>
<path fill-rule="evenodd" clip-rule="evenodd" d="M55.8047 150L72.8255 140.104L99.7422 155.74V175.333L55.8047 150Z" fill="#EA205E"/>
<path fill-rule="evenodd" clip-rule="evenodd" d="M55.8047 99.3333L72.8255 109.229V140.104L55.8047 150V99.3333Z" fill="#A5073E"/>
<path fill-rule="evenodd" clip-rule="evenodd" d="M72.8262 109.229L99.7428 93.5938L126.659 109.229L99.7428 124.667L72.8262 109.229Z" fill="#F1F6E2"/>
<path fill-rule="evenodd" clip-rule="evenodd" d="M99.7422 124.667L126.659 109.229V140.104L99.7422 155.74V124.667Z" fill="#CEDBE6"/>
<path fill-rule="evenodd" clip-rule="evenodd" d="M72.8262 109.229L99.7428 124.667V155.74L72.8262 140.104V109.229Z" fill="white"/>
</svg>