<svg xmlns="http://www.w3.org/2000/svg" xmlns:xlink="http://www.w3.org/1999/xlink" id="svg3614" viewBox="0 0 343.64 376.36"><defs><style>.cls-1{fill:url(#linear-gradient);}.cls-2{fill:url(#linear-gradient-2);}.cls-3{fill:url(#radial-gradient);}.cls-4{fill:#231f1f;}</style><linearGradient id="linear-gradient" x1="-367.98" y1="614.93" x2="19.7" y2="844.01" gradientTransform="matrix(0.38, 0, 0, -0.38, 446.55, 578.06)" gradientUnits="userSpaceOnUse"><stop offset="0" stop-color="#909ca9"/><stop offset="1" stop-color="#ededee"/></linearGradient><linearGradient id="linear-gradient-2" x1="-366.67" y1="1410.49" x2="-54.73" y2="1410.49" gradientTransform="matrix(0.38, 0, 0, -0.38, 446.55, 578.06)" gradientUnits="userSpaceOnUse"><stop offset="0" stop-color="#939fab"/><stop offset="1" stop-color="#dcdee1"/></linearGradient><radialGradient id="radial-gradient" cx="-1452.61" cy="855.73" r="414.16" gradientTransform="matrix(-0.37, -0.06, -0.11, 0.73, -18.56, -565.5)" gradientUnits="userSpaceOnUse"><stop offset="0" stop-color="#ee352c"/><stop offset="1" stop-color="#a91d22"/></radialGradient></defs><g id="layer1-2"><path id="path3639" class="cls-1" d="M466.54,180.23,391.2,204.8l-65.5,28.94-18.35,4.85q-7,6.63-14.85,13.48c-5.78,5-11.21,9.59-15.35,12.88a117,117,0,0,0-14.94,14.82c-5.2,6.47-9.27,13.38-11,18.69-3.15,9.56-1.61,19.24,4.46,28.17,7.75,11.41,23.19,23,41.14,30.9A269,269,0,0,0,333,369.67c19.31,4.88,56.64,10.18,77.19,11a89.87,89.87,0,0,0,10,0c.45-.3,3.65-6.36,7.36-13.94,12.63-25.81,21.77-50,26.69-70.66,3-12.51,5.3-29.2,6.8-49,.43-5.54.58-24,.25-30.3A210.47,210.47,0,0,0,458.39,190a6.88,6.88,0,0,1-.18-2.34c.21-.18.93-.41,10.18-3.1l-1.85-4.33Zm-17.21,10.11c.68,0,2.5,17.46,3,28.54.1,2.35.08,3.86-.06,3.86-.45,0-9.64-5.4-16.17-9.5-5.69-3.58-16.5-10.76-18.21-12.11-.55-.42-.49-.44,4.17-2,7.92-2.72,26.7-8.74,27.3-8.74Zm-38.39,12.59c.49,0,1.82.73,4.95,2.7,11.75,7.36,27.66,16.21,34.48,19.19,2.12.93,2.36.57-2.51,3.87-10.38,7.05-23.29,14-39.13,21-2.76,1.23-5.1,2.23-5.2,2.23a16.37,16.37,0,0,1,.68-3.12c3.84-14.2,6-28.53,6.07-40,0-5.69,0-5.72.57-5.86Zm-7.9,3c.34.34.1,13.08-.32,16.55a142.9,142.9,0,0,1-5.23,24.78c-.62,2.1-1.2,3.9-1.3,4-.22.26-8-7.33-10.6-10.33a76.91,76.91,0,0,1-10.48-15.26c-1.29-2.55-3.36-7.59-3.17-7.73.88-.63,30.89-12.24,31.1-12Zm-37.21,14.67a.2.2,0,0,1,.16.06,13.22,13.22,0,0,1,.88,2.06,76.56,76.56,0,0,0,9.44,16.93,97.66,97.66,0,0,0,13.13,14.18l2.8,2.41c.36.32.48.26-8.81,3.79-10.76,4.08-22.49,8.17-35.95,12.52l-9.64,3.12c-.51.19-.35-.12,1.14-2.47,6.69-10.44,16.83-30.86,22.49-45.31,1-2.51,1.92-5,2.09-5.58a1.85,1.85,0,0,1,1.26-1.45,2.38,2.38,0,0,1,1-.26Zm-11.4,4.7c.15.14-2.74,6.23-5.58,11.78-5.51,10.74-11.58,21.32-19.65,34.23-1.39,2.23-2.67,4.26-2.85,4.52s-.4.27-1.28-1.48a52.06,52.06,0,0,1-4.39-13.19,53.27,53.27,0,0,1,.31-17c.74-3.56.71-3.48,2.39-4.34C330.62,236.16,354.19,225.12,354.43,225.32Zm98.22,4v2.42a314.36,314.36,0,0,1-3.34,42.79c-.34,2.23-.64,4.07-.66,4.09s-1.63-.45-3.57-1.05a146.78,146.78,0,0,1-26.18-11.2c-5.53-3-13.54-7.95-13.32-8.17.06-.06,2.42-1.31,5.25-2.78A330.35,330.35,0,0,0,442,237.14c3.49-2.33,8.7-6.09,9.86-7.11ZM311.42,246.15c.24,0,.18.43-.19,2.53-.25,1.46-.54,4.21-.64,6.11-.46,8.33.89,14.47,5,22.88,1.15,2.34,2.05,4.28,2,4.32-.41.35-38.08,11.37-49.92,14.61-3.51,1-6.57,1.81-6.82,1.89-.41.12-.45,0-.3-.93,1.3-8.36,7.67-19.32,16.57-28.53a74.36,74.36,0,0,1,18.72-14.35c5.79-3.3,14.77-8.25,15.43-8.5l.12,0Zm88.84,15.91a30.2,30.2,0,0,1,3.09,1.67A170.37,170.37,0,0,0,447,280.67l1.31.3-1.8,1c-7.56,4.2-32.46,14.55-57.89,24.09-3.71,1.4-7.33,2.76-8,3a4.85,4.85,0,0,1-1.29.42c0-.06,1.05-2.07,2.34-4.48,7.13-13.35,14.26-29.57,17.92-40.82.37-1.15.7-2.12.74-2.16Zm-9.06,3a22.42,22.42,0,0,1-1,2.64,367.15,367.15,0,0,1-19.76,39.8c-2.11,3.74-3.88,6.8-3.95,6.79s-1.79-1-3.81-2.26c-12.08-7.4-22.77-16.5-29.78-25.35l-1-1.25,5.2-1.43a369.74,369.74,0,0,0,50-17.28c2.22-.95,4.06-1.7,4.1-1.66Zm56.25,19.63a.05.05,0,0,1,0,0c0,1.27-2.87,13-5.27,21.46-2,7.11-3.69,12.68-6.81,22.53-1.38,4.36-2.57,7.91-2.64,7.89l-.73-.14a234.47,234.47,0,0,1-46.27-13c-4-1.59-9.71-4.13-10-4.43a70.23,70.23,0,0,1,7.61-3.59c25.93-11.31,52.79-24.19,62-29.71a7,7,0,0,1,2.1-1ZM317.6,289.11c.14.13-7.12,10.51-17.25,24.69-3.52,4.92-7.65,10.73-9.18,12.9s-3.85,5.61-5.16,7.64l-2.4,3.69-2.55-2.14a101,101,0,0,1-10.6-10.81c-4.89-6.09-8.2-12.51-9.51-18.4-.61-2.72-.62-4.1-.05-4.27.83-.25,16-3.83,30.3-7.14,7.93-1.84,17.09-4,20.37-4.78s6-1.41,6-1.38Zm7.29,2.79,1.83,2.05a106.23,106.23,0,0,0,26.73,21.84,14.63,14.63,0,0,1,3.05,2c-.42.26-35.2,12.63-51.28,18.23-9.08,3.16-16.53,5.74-16.57,5.73a12.28,12.28,0,0,1-1.13-.75l-1-.75,1.65-2.37c5.33-7.73,12-16.23,26.71-33.89l10.06-12.1Zm45.45,32.48c0-.05,2.58.85,5.66,2a180.43,180.43,0,0,0,21.11,6.55A239,239,0,0,0,429,338.48c1.28.1,1.92.25,1.72.38-.38.24-8.77,3-14.93,5-9.78,3.07-39.68,11.91-64.06,18.92-4.52,1.3-8.39,2.4-8.59,2.44-.55.12-2.46-.38-2.46-.64a47,47,0,0,1,3-3.84,343.31,343.31,0,0,0,23.13-31.1c1.86-2.83,3.42-5.19,3.46-5.24Zm-10.07.28c.07.08-4,6.55-11.07,17.74-3,4.72-6.4,10.1-7.57,12s-2.87,4.66-3.79,6.25l-1.67,2.91-.84-.23c-2-.55-16.44-5.64-20.25-7.15a134.12,134.12,0,0,1-13.25-6.08c-4.53-2.45-10.27-6.08-9.82-6.22.13-.05,7.92-2.18,17.3-4.74,25-6.8,38.77-10.71,47.82-13.53,1.69-.53,3.1-.93,3.14-.9Zm70.88,16.63c.06,0,.08,0,.09,0,.23.59-9,26.18-12.38,34.29-.76,1.82-1,2.26-1.43,2.24-1,0-14.36-1.91-22.46-3.14-14.2-2.16-38-6.31-44-7.68l-1.4-.31,8.51-1.92c18.24-4.11,27-6.31,35.88-9a259.7,259.7,0,0,0,33.51-12.92,33.69,33.69,0,0,1,3.65-1.53Z" transform="translate(-249.6 -4.64)"/><path id="path3667" class="cls-2" d="M388.9,4.65c-1.26-.15-21.49,7.13-34.48,12.41-17.6,7.15-31.27,14-39.7,19.92-3.14,2.21-7.09,6.17-7.66,7.69a5.37,5.37,0,0,0-.32,1.92l7.65,7.22,18.14,5.79,43.23,7.72,49.42,8.5.5-4.24-.44-.08-6.51-1-1.32-2.32C410.69,56.31,403.27,41.64,399,31.72a192.26,192.26,0,0,1-8.31-22.95c-1.06-3.81-1.17-4.06-1.75-4.12Zm-1,2.93H388s.27,1.63.5,3.52a119.5,119.5,0,0,0,5.54,24c2.1,6.26,2.13,5.89-.37,5.2-5.81-1.63-31.85-6.1-50.68-8.7-3-.42-5.56-.8-5.6-.84-.24-.24,13.58-7.48,19.71-10.33C365,16.77,386.38,7.86,387.94,7.58ZM333.07,33.06l2.2.75c12.1,4.12,42.4,9.91,59.15,11.3,1.89.16,3.48.33,3.53.37a39.17,39.17,0,0,1-3.56,1.91c-8.08,4-17,9-23.13,12.83a22.56,22.56,0,0,1-3.68,2c-.22,0-1.41-.21-2.66-.42l-2.28-.37-5.71-5.55C346.88,46.19,339.05,38.67,336,35.83Zm-2.24,1.79,8,10c4.41,5.5,8.82,10.95,9.8,12.13a19.47,19.47,0,0,1,1.7,2.2c-.23.17-11.61-2-17.64-3.43-6.19-1.42-8.75-2.1-12.58-3.32l-3.12-1v-.78c0-3.84,4.88-9.5,13.09-15.3l.73-.5ZM399,48.47c.24,0,.5.51,1.21,2.06,1.94,4.26,8,15.79,9.45,18,.48.73,1.24.78-6.78-.51-19.29-3.12-25.53-4.16-25.53-4.28a6,6,0,0,1,1.29-.85,111.67,111.67,0,0,0,17.36-12l2.74-2.3a.41.41,0,0,1,.26-.12Z" transform="translate(-249.6 -4.64)"/><path id="path2851" class="cls-3" d="M307.4,43.9a5.66,5.66,0,0,0-.07,4.93c.73,1.83,2.92,4,5.34,6.34,0,0,25.3,24.69,28.4,28.27,14,16.18,20.12,32.11,20.68,54.11.36,14.11-2.36,26.52-9,40.94-11.85,25.85-36.82,54.35-75.38,86l5.66-1.87c3.63-2.72,8.57-5.63,20.23-12,26.84-14.68,57-28.18,94-42.1,53.27-20,140.89-43.5,190.75-51.14l5.2-.8-.8-1.25A169.65,169.65,0,0,0,581,139.28a136.58,136.58,0,0,0-40.39-33.64c-22.29-12.48-51.2-22.18-87.75-29.45-6.91-1.37-22-4-34.35-5.88C392.44,66.24,375.62,63.5,357,60.26c-6.66-1.15-16.61-2.82-23.21-4.25a148.75,148.75,0,0,1-15.06-4c-4.2-1.65-10.11-3.25-11.37-8.07Zm14.67,14.24a18,18,0,0,1,2.14.66c2.14.72,5,1.57,8.24,2.49,2.29.64,4.82,1.31,7.5,2,3.43.87,6.26,1.63,6.3,1.67.37.42,6.12,18.78,8.09,25.82.74,2.69,1.31,4.93,1.26,5a13.31,13.31,0,0,1-1.41-2.19C347.54,81.87,337,70,324.82,60.39,323.3,59.2,322.07,58.19,322.07,58.14Zm28,7.75a20.74,20.74,0,0,1,3.06.52c9.7,2.15,27,5.49,38.16,7.36a18.06,18.06,0,0,1,3.39.75,5.07,5.07,0,0,1-1.54,1c-1.87.94-9.43,5.47-12,7.16a112,112,0,0,0-16.14,12.87c-1.66,1.65-3.05,3-3.09,3a14.84,14.84,0,0,1-.65-2.14,189.83,189.83,0,0,0-10.17-27.87,28,28,0,0,1-1.12-2.6s0,0,.06,0Zm49.32,9.37c.32.11.93,2,2,6.33a95,95,0,0,1,2.73,26.06c-.09,2.38-.24,4.6-.33,4.92l-.18.6-2.95-1c-6.06-1.93-16-4.85-24.47-7.2-4.83-1.34-8.78-2.53-8.78-2.65,0-.35,7-7.39,10.07-10.07,5.78-5.11,21.33-17.21,21.89-17Zm3.92.56c.17-.16,23.56,3.89,34.19,5.93,7.93,1.51,19.39,3.91,20.08,4.2.34.14-.85.79-4.66,2.5-15,6.79-26.21,12.85-37.29,20.27-2.92,2-5.35,3.55-5.4,3.55s-.09-1.63-.1-3.62a79.83,79.83,0,0,0-6.12-30.94,9.8,9.8,0,0,1-.7-1.89Zm60.48,12c.18.18-.59,4.79-1.25,7.52-2.07,8.48-7.56,21.06-14.32,32.9a35.86,35.86,0,0,1-2.39,3.86,25.88,25.88,0,0,1-3.42-1.8,180.33,180.33,0,0,0-22.34-10.93c-2.29-1-4.25-1.79-4.35-1.88-.37-.35,17.91-12.46,27.61-18.28C451.13,94.52,463.61,87.57,463.83,87.79Zm4.33.68c.52,0,10.9,2.82,16.26,4.43a340.63,340.63,0,0,1,38.77,14.17l4.16,1.88-2.93.68a423.71,423.71,0,0,0-65.63,20.3c-1.68.68-3.14,1.24-3.24,1.24a14.34,14.34,0,0,1,1.18-2.88c6.07-12.9,10-26.44,11-37.93.09-1,.28-1.89.42-1.89ZM365,112.17c.16-.17,8.06,1.68,12.37,2.89,6.47,1.82,20.24,6.43,20.25,6.78,0,.07-1.52,1.39-3.37,3-7.45,6.23-14.63,12.74-23.24,21-2.55,2.46-4.71,4.47-4.82,4.47s-.16-.36-.1-.8c1.3-9.57,1-21.85-.78-34.35a19.74,19.74,0,0,1-.31-3Zm166.27.15c.12.12-3.66,6-6,9.4-3.43,4.92-8.41,11.38-19.75,25.65-6,7.49-12.68,16-15,18.84s-4.16,5.21-4.21,5.21a23,23,0,0,1-1.63-2.27,119,119,0,0,0-23-25.48c-1.69-1.4-3.59-2.95-4.23-3.42a7,7,0,0,1-1.15-1c0-.16,9.66-4.31,17-7.31,12.85-5.23,30.41-11.49,43.55-15.51,6.92-2.13,14.28-4.24,14.39-4.14Zm4.36,1.15a13.89,13.89,0,0,1,3.24,1.57A191.89,191.89,0,0,1,577,143.61c3,3,10.45,10.7,10.34,10.76s-2.59.22-5.69.46c-24,1.8-54.64,6.9-84.15,14-2,.48-3.74.88-3.85.88s2.08-2.2,4.87-4.89c17.34-16.66,25.24-27.18,34.55-46,1.38-2.8,2.56-5.22,2.61-5.36s0,0,0,0Zm-126.74,13c.8.18,8.19,3.62,13.77,6.41,5.1,2.56,12.83,6.67,13.21,7,0,.05-2.67,1.47-6.05,3.16-10.7,5.36-19.87,10.41-29.43,16.26-2.73,1.66-5,3-5.09,3-.24,0-.15-.2,1.38-3A120.3,120.3,0,0,0,408.29,128c.21-1,.47-1.57.64-1.53Zm-7.44,1.34a110.25,110.25,0,0,1-3,11,142.08,142.08,0,0,1-10.06,23.12c-.89,1.6-2.25,3.95-3,5.22l-1.4,2.3-3.2-3.09a41.9,41.9,0,0,0-10.59-7.82,15.19,15.19,0,0,1-2.75-1.61c0-.46,9.71-9.3,17.21-15.64C390.05,136.69,401.35,127.65,401.49,127.79Zm45.25,18.61,2.78,1.8a223.29,223.29,0,0,1,19.66,14.49c3.22,2.68,9.49,8.29,10.77,9.65l.69.73L476,174.36C450,181.59,429.8,188,406.29,196.67c-2.61,1-4.86,1.76-5,1.76-.32,0-.64.29,5.22-5.1,15-13.84,28.32-29.09,38.25-43.93Zm-11.89,3c.14.14-7.71,11.12-12.37,17.33-5.57,7.42-15.51,19.82-22.34,27.9-2.85,3.38-5.3,6.18-5.43,6.22s-.24-.77-.24-2.08a47.73,47.73,0,0,0-4.84-20.5c-1.3-2.63-1.52-3.27-1.25-3.51,1.07-1,17.66-10.44,28.12-16,7.18-3.85,18.21-9.46,18.35-9.32ZM362.93,167a24.92,24.92,0,0,1,2.95,1.49,62.1,62.1,0,0,1,9.77,6.63,17.8,17.8,0,0,1-3.31,2.7c-5.4,3.9-13.61,10.1-18.37,13.88-5,4-5.19,4.12-4.63,3.26A102.76,102.76,0,0,0,357,181.79a108.42,108.42,0,0,0,4.75-11.9,10.28,10.28,0,0,1,1.21-2.89Zm19.16,15c.26,0,.63.45,2.17,2.75a41.3,41.3,0,0,1,6.37,16.59l.13,1.13-7.78,3c-14,5.42-26.82,10.76-35.51,14.74-2.43,1.11-6.72,3.16-9.52,4.56s-5.09,2.5-5.09,2.44,1.76-1.38,3.91-2.94c17.05-12.37,31.74-25.92,42.82-39.46,1.18-1.45,2.26-2.71,2.39-2.79a.25.25,0,0,1,.11,0Zm-8.84,2.19c.22.23-6.29,7.6-10.68,12.07a189.75,189.75,0,0,1-35.35,28.55c-1.69,1.08-3.23,2-3.44,2.16-.37.22.12-.34,6.05-6.79,3.73-4.07,6.58-7.44,9.83-11.65a19.43,19.43,0,0,1,5.67-5.43c8.42-6.08,27.69-19.13,27.92-18.91Z" transform="translate(-249.6 -4.64)"/></g><g id="g3525"><path id="path168" class="cls-4" d="M439.19,371.19H436V381h-1.28v-9.81h-3.17V370h7.61" transform="translate(-249.6 -4.64)"/><path id="path170" class="cls-4" d="M452.12,381h-1.29v-7.37c0-.57,0-1.29.11-2.12h0a6.73,6.73,0,0,1-.32,1.06L446.83,381h-.63l-3.75-8.37a6.53,6.53,0,0,1-.32-1.12h0c0,.43,0,1.15,0,2.14V381h-1.24V370h1.71l3.36,7.66a7.85,7.85,0,0,1,.5,1.31h.06c.22-.6.39-1.05.52-1.35L450.5,370h1.61" transform="translate(-249.6 -4.64)"/></g></svg>